<svg width="485" height="473" viewBox="0 0 485 473" fill="none" xmlns="http://www.w3.org/2000/svg">
<rect width="485" height="473" fill="#FCFCFC"/>
<path d="M407.5 236C407.5 316.3 333.688 381.5 242.5 381.5C151.312 381.5 77.5 316.3 77.5 236C77.5 155.7 151.312 90.5 242.5 90.5C333.688 90.5 407.5 155.7 407.5 236Z" fill="#2980B9" stroke="#2980B9"/>
<path d="M401.5 236.5C401.5 317.094 330.354 382.5 242.5 382.5C154.646 382.5 83.5 317.094 83.5 236.5C83.5 155.906 154.646 90.5 242.5 90.5C330.354 90.5 401.5 155.906 401.5 236.5Z" fill="#F9F9F9" stroke="white"/>
<path d="M359 173.415C359 208.485 286.526 354 244 354C201.474 354 129 208.485 129 173.415C129 138.345 201.474 134.5 244 134.5C286.526 134.5 359 138.345 359 173.415Z" fill="#2980B9"/>
<rect x="163" y="188.2" width="160" height="30.2261" fill="white"/>
<rect x="259" y="125" width="158" height="30.6087" transform="rotate(90 259 125)" fill="white"/>
<circle cx="243" cy="115" r="16" fill="#2980B9"/>
<circle cx="243" cy="115" r="7" fill="white"/>
</svg>
